<mxfile host="app.diagrams.net" modified="2021-10-05T18:56:21.345Z" agent="5.0 (Macintosh; Intel Mac OS X 10_15_7) AppleWebKit/537.36 (KHTML, like Gecko) Chrome/94.0.4606.61 Safari/537.36" etag="0-IkTIjTMq_8oFsoGmh1" version="15.4.3" type="github">
  <diagram id="ataKOmiz8iFyLWpAsvsU" name="Page-1">
    <mxGraphModel dx="847" dy="614" grid="1" gridSize="10" guides="1" tooltips="1" connect="1" arrows="1" fold="1" page="1" pageScale="1" pageWidth="850" pageHeight="1100" math="0" shadow="0">
      <root>
        <mxCell id="0" />
        <mxCell id="1" parent="0" />
        <mxCell id="egV489lG-fPPt1mRkRgQ-1" value="" style="shape=image;html=1;verticalAlign=top;verticalLabelPosition=bottom;labelBackgroundColor=#ffffff;imageAspect=0;aspect=fixed;image=https://cdn2.iconfinder.com/data/icons/social-media-2285/512/1_Whatsapp2_colored_svg-128.png" vertex="1" parent="1">
          <mxGeometry x="110" y="40" width="90" height="90" as="geometry" />
        </mxCell>
        <mxCell id="egV489lG-fPPt1mRkRgQ-2" value="&lt;font style=&quot;font-size: 18px&quot;&gt;DB Design for Whatsapp clone&lt;/font&gt;" style="text;html=1;strokeColor=none;fillColor=none;align=center;verticalAlign=middle;whiteSpace=wrap;rounded=0;" vertex="1" parent="1">
          <mxGeometry x="280" y="60" width="280" height="50" as="geometry" />
        </mxCell>
      </root>
    </mxGraphModel>
  </diagram>
</mxfile>
